<svg width="35" height="32" viewBox="0 0 35 32" fill="none" xmlns="http://www.w3.org/2000/svg">
<path d="M27.7083 4H7.29167C5.68021 4 4.375 5.19333 4.375 6.66667V25.3333C4.375 26.8067 5.68021 28 7.29167 28H18.4056V18.7187H14.9888V15.0853H18.4056V12.412C18.4056 9.31333 20.4779 7.624 23.5025 7.624C24.5219 7.62133 25.5398 7.66933 26.5533 7.764V11.004H24.4708C22.8229 11.004 22.5021 11.716 22.5021 12.7667V15.08H26.4396L25.9277 18.7133H22.4788V28H27.7083C29.3198 28 30.625 26.8067 30.625 25.3333V6.66667C30.625 5.19333 29.3198 4 27.7083 4Z" fill="black"/>
</svg>
