<svg width="33" height="31" viewBox="0 0 33 31" fill="none" xmlns="http://www.w3.org/2000/svg">
<path d="M26.125 3.875H6.875C5.35562 3.875 4.125 5.03104 4.125 6.45833V24.5417C4.125 25.969 5.35562 27.125 6.875 27.125H26.125C27.6444 27.125 28.875 25.969 28.875 24.5417V6.45833C28.875 5.03104 27.6444 3.875 26.125 3.875ZM12.375 21.9583H8.90588V12.9167H12.375V21.9583ZM10.5792 11.2595C9.51912 11.2595 8.811 10.5955 8.811 9.70946C8.811 8.82338 9.51775 8.15946 10.6961 8.15946C11.7562 8.15946 12.4644 8.82338 12.4644 9.70946C12.4644 10.5955 11.7576 11.2595 10.5792 11.2595ZM24.75 21.9583H21.3923V17.0164C21.3923 15.6498 20.4971 15.3347 20.1616 15.3347C19.8261 15.3347 18.7069 15.5452 18.7069 17.0164C18.7069 17.227 18.7069 21.9583 18.7069 21.9583H15.2378V12.9167H18.7069V14.1786C19.1537 13.4424 20.0489 12.9167 21.7278 12.9167C23.4066 12.9167 24.75 14.1786 24.75 17.0164V21.9583Z" fill="black"/>
</svg>
