<svg width="48" height="47" viewBox="0 0 48 47" fill="none" xmlns="http://www.w3.org/2000/svg">
<path d="M30 21.5417V9.79167L24 3.91667L18 9.79167V13.7083H6V41.125H42V21.5417H30ZM14 37.2083H10V33.2917H14V37.2083ZM14 29.375H10V25.4583H14V29.375ZM14 21.5417H10V17.625H14V21.5417ZM26 37.2083H22V33.2917H26V37.2083ZM26 29.375H22V25.4583H26V29.375ZM26 21.5417H22V17.625H26V21.5417ZM26 13.7083H22V9.79167H26V13.7083ZM38 37.2083H34V33.2917H38V37.2083ZM38 29.375H34V25.4583H38V29.375Z" fill="black"/>
</svg>
