<svg width="65" height="67" viewBox="0 0 65 67" fill="none" xmlns="http://www.w3.org/2000/svg">
<path d="M43.3333 30.7083C47.8291 30.7083 51.4312 26.9675 51.4312 22.3333C51.4312 17.6992 47.8291 13.9583 43.3333 13.9583C38.8375 13.9583 35.2083 17.6992 35.2083 22.3333C35.2083 26.9675 38.8375 30.7083 43.3333 30.7083ZM21.6666 30.7083C26.1625 30.7083 29.7646 26.9675 29.7646 22.3333C29.7646 17.6992 26.1625 13.9583 21.6666 13.9583C17.1708 13.9583 13.5416 17.6992 13.5416 22.3333C13.5416 26.9675 17.1708 30.7083 21.6666 30.7083ZM21.6666 36.2917C15.3562 36.2917 2.70831 39.5579 2.70831 46.0625V53.0417H40.625V46.0625C40.625 39.5579 27.9771 36.2917 21.6666 36.2917ZM43.3333 36.2917C42.5479 36.2917 41.6541 36.3475 40.7062 36.4313C43.8479 38.7763 46.0416 41.9308 46.0416 46.0625V53.0417H62.2916V46.0625C62.2916 39.5579 49.6437 36.2917 43.3333 36.2917Z" fill="black"/>
</svg>
