<svg width="54" height="58" viewBox="0 0 54 58" fill="none" xmlns="http://www.w3.org/2000/svg">
<path d="M27 14.2583C29.61 14.2583 31.725 16.53 31.725 19.3333C31.725 22.1367 29.61 24.4083 27 24.4083C24.39 24.4083 22.275 22.1367 22.275 19.3333C22.275 16.53 24.39 14.2583 27 14.2583ZM27 36.0083C33.6825 36.0083 40.725 39.5367 40.725 41.0833V43.7417H13.275V41.0833C13.275 39.5367 20.3175 36.0083 27 36.0083ZM27 9.66666C22.0275 9.66666 18 13.9925 18 19.3333C18 24.6742 22.0275 29 27 29C31.9725 29 36 24.6742 36 19.3333C36 13.9925 31.9725 9.66666 27 9.66666ZM27 31.4167C20.9925 31.4167 9 34.655 9 41.0833V48.3333H45V41.0833C45 34.655 33.0075 31.4167 27 31.4167Z" fill="black"/>
</svg>
