<svg width="27" height="27" viewBox="0 0 27 27" fill="none" xmlns="http://www.w3.org/2000/svg">
<path d="M13.5 0C6.04395 0 0 6.04395 0 13.5C0 20.9561 6.04395 27 13.5 27C20.9561 27 27 20.9561 27 13.5C27 6.04395 20.9561 0 13.5 0ZM10.8 18.9C7.81785 18.9 5.4 16.4822 5.4 13.5C5.4 10.5178 7.81785 8.1 10.8 8.1C12.2067 8.1 13.4757 8.6508 14.4369 9.53235L12.9614 10.9283C12.3755 10.4342 11.6276 10.125 10.8 10.125C8.93565 10.125 7.425 11.6356 7.425 13.5C7.425 15.3644 8.93565 16.875 10.8 16.875C12.4321 16.875 13.7943 15.7154 14.1075 14.175H10.8V12.15H16.0097C16.1217 12.5834 16.2 13.0316 16.2 13.5C16.2 16.4822 13.7822 18.9 10.8 18.9ZM21.6 13.5V15.525H20.25V13.5H18.225V12.15H20.25V10.125H21.6V12.15H23.625V13.5H21.6Z" fill="black"/>
</svg>
